#!OML:ASF E:\emotionWalksFemale\Project 1\Capture day 1\Session 1\Female1.ASF
:FULLY-SPECIFIED
:DEGREES
235
root 9.46105 15.7074 5.19269 -185.794 -53.8095 -169.5
lowerback 15.1898 -3.70531 6.22054
upperback -2.60346 -3.41034 5.87725
thorax -11.4487 -1.90061 3.84073
lowerneck -11.9706 1.6818 -0.63976
upperneck -6.33231 1.77393 -1.51556
head 0.00521257 0.665548 -0.299411
rclavicle -8.78628e-014 -4.77083e-015
rhumerus -45.4657 -3.77031 -33.8504
rradius 33.9337
rwrist 25.8031
rhand 1.84728 -52.3049
rfingers 7.12502
rthumb 27.3585 -440.339
lclavicle -8.78628e-014 -4.77083e-015
lhumerus -20.083 -77.7753 105.16
lradius 80.1617
lwrist 10.6853
lhand -0.551253 -51.468
lfingers 7.12502
lthumb 25.0623 -23.0925
rfemur -27.1991 26.0675 10.3247
rtibia 37.2666
rfoot 12.1317 -11.9557
rtoes 9.31715
lfemur -19.1529 10.9342 -35.4598
ltibia 31.221
lfoot -0.478264 1.2343
ltoes -49.4347
236
root 9.51904 15.4015 5.00157 -186.864 -54.846 -168.721
lowerback 15.5589 -3.65412 5.95942
upperback -2.71115 -3.35245 5.37918
thorax -11.8015 -1.85524 3.45554
lowerneck -11.0647 2.35402 0.402535
upperneck -7.08269 2.52408 -1.98363
head -0.347014 1.02309 -0.599082
rclavicle 9.74045e-015 3.02153e-014
rhumerus -49.8025 -4.85088 -35.726
rradius 32.9254
rwrist 25.8108
rhand 2.02117 -52.3637
rfingers 7.12502
rthumb 27.5248 -440.372
lclavicle 9.74045e-015 3.02153e-014
lhumerus -32.3407 -76.5444 115.663
lradius 78.6231
lwrist 9.85696
lhand -0.251151 -50.8548
lfingers 7.12502
lthumb 25.3498 -22.5197
rfemur -25.9076 23.1081 11.9676
rtibia 40.1009
rfoot 2.73906 -7.29336
rtoes -18.417
lfemur -20.3425 9.90457 -34.4954
ltibia 35.9188
lfoot -9.50641 1.82791
ltoes -33.4765
237
root 9.57165 15.093 4.81582 -188.281 -55.8332 -167.629
lowerback 16.0068 -3.57145 5.98814
upperback -2.67635 -3.2044 5.02406
thorax -12.0485 -1.78895 3.03813
lowerneck -10.5668 2.9087 0.881839
upperneck -7.765 3.17953 -2.3447
head -0.614683 1.33747 -0.781065
rclavicle -2.96189e-014 -1.11319e-014
rhumerus -53.7489 -6.19386 -37.1608
rradius 31.7652
rwrist 26.2954
rhand 2.52613 -52.2074
rfingers 7.12502
rthumb 28.0077 -440.137
lclavicle -2.96189e-014 -1.11319e-014
lhumerus -39.7445 -74.7045 121.727
lradius 76.6681
lwrist 8.79668
lhand -0.760621 -50.6381
lfingers 7.12502
lthumb 24.8616 -22.2347
rfemur -25.3153 20.6547 13.611
rtibia 43.3035
rfoot -3.71553 -7.51027
rtoes -25.4072
lfemur -21.359 8.6041 -33.3519
ltibia 40.1127
lfoot -18.3645 0.539085
ltoes -15.8901
238
root 9.62607 14.7951 4.63286 -190.104 -56.585 -166.048
lowerback 16.5406 -3.5202 6.16842
upperback -2.63323 -3.05688 4.84291
thorax -12.3348 -1.73307 2.73487
lowerneck -9.91314 3.58598 1.14151
upperneck -8.60969 4.0191 -2.63617
head -0.956943 1.74912 -0.912409
rclavicle -6.95746e-014 -4.45278e-014
rhumerus -57.4539 -7.61996 -38.3585
rradius 30.9471
rwrist 27.088
rhand 3.87713 -52.275
rfingers 7.12502
rthumb 29.2984 -439.987
lclavicle -6.95746e-014 -4.45278e-014
lhumerus -43.8344 -72.1973 124.58
lradius 74.4227
lwrist 7.70065
lhand -1.15893 -50.856
lfingers 7.12502
lthumb 24.4799 -22.4004
rfemur -25.1672 18.4096 15.3534
rtibia 45.8984
rfoot -11.107 -7.45275
rtoes -29.4921
lfemur -22.2515 7.96107 -32.2619
ltibia 44.2441
lfoot -26.0577 1.45974
ltoes -6.2844
239
root 9.69184 14.4918 4.44776 -192.742 -57.1194 -163.63
lowerback 17.4252 -3.55822 6.54562
upperback -2.58581 -2.9416 4.88659
thorax -12.8224 -1.70369 2.60886
lowerneck -9.30588 4.40673 1.45544
upperneck -9.3562 5.05714 -2.87002
head -1.25672 2.25893 -1.03859
rclavicle 6.83571e-014 -2.5842e-014
rhumerus -61.0984 -9.27082 -39.14
rradius 30.6037
rwrist 28.3627
rhand 5.96876 -52.9125
rfingers 7.12502
rthumb 31.2936 -440.258
lclavicle 6.83571e-014 -2.5842e-014
lhumerus -45.9179 -69.0102 125.291
lradius 72.1891
lwrist 6.95385
lhand -1.48643 -50.8288
lfingers 7.12502
lthumb 24.1659 -22.3311
rfemur -24.8009 16.636 17.4463
rtibia 47.4511
rfoot -16.6291 -8.1425
rtoes -28.8652
lfemur -23.0478 7.06404 -30.6564
ltibia 48.1722
lfoot -32.849 2.24495
ltoes 12.8002
240
root 9.74099 14.2284 4.27949 -196.435 -57.2475 -158.308
lowerback 16.9209 -3.76793 8.90581
upperback -2.86885 -2.74847 5.40899
thorax -12.9668 -1.7941 1.82794
lowerneck -8.82879 5.24112 2.0121
upperneck -9.96268 6.09721 -3.21708
head -1.47859 2.76138 -1.24346
rclavicle 6.37602e-014 -2.46493e-014
rhumerus -64.1644 -11.234 -39.2644
rradius 29.7489
rwrist 30.5518
rhand 7.44578 -53.4245
rfingers 7.12502
rthumb 32.6999 -440.488
lclavicle 6.37602e-014 -2.46493e-014
lhumerus -46.5668 -65.3536 124.483
lradius 70.0946
lwrist 6.72665
lhand -2.26027 -50.3156
lfingers 7.12502
lthumb 23.4237 -21.7213
rfemur -25.417 15.5222 20.7991
rtibia 48.2594
rfoot -20.981 -10.0378
rtoes -26.2395
lfemur -25.6353 6.29302 -27.7343
ltibia 52.5446
lfoot -37.1122 4.35624
ltoes 24.0978
241
root 9.76983 14.1339 4.13479 -195.12 -58.3636 -158.346
lowerback 15.8478 -3.7838 7.99178
upperback -3.29065 -3.05552 5.22406
thorax -12.783 -1.87344 2.15754
lowerneck -8.49559 6.04634 2.53941
upperneck -10.4932 7.11208 -3.40033
head -1.65393 3.24711 -1.39221
rclavicle 2.73329e-016 8.34896e-015
rhumerus -66.7295 -13.4476 -38.828
rradius 28.3621
rwrist 33.3588
rhand 7.70795 -53.4309
rfingers 7.12502
rthumb 32.9493 -440.442
lclavicle 2.73329e-016 8.34896e-015
lhumerus -46.4822 -61.5481 122.72
lradius 68.1515
lwrist 6.79422
lhand -3.15189 -50.5482
lfingers 7.12502
lthumb 22.5682 -21.8474
rfemur -26.3583 15.0266 20.6622
rtibia 49.1219
rfoot -26.6108 -12.6835
rtoes -26.9355
lfemur -28.9668 5.03716 -28.02
ltibia 56.6251
lfoot -36.8375 6.18702
ltoes 16.8485
242
root 9.81316 14.0121 3.9941 -194.315 -59.5577 -158.582
lowerback 15.7317 -3.84775 7.00835
upperback -3.40098 -3.34318 4.98914
thorax -12.7952 -1.93387 2.5126
lowerneck -8.79606 6.76786 3.03679
upperneck -11.0117 7.97398 -3.57196
head -1.72261 3.63865 -1.51418
rclavicle 3.54085e-015 5.22804e-014
rhumerus -69.1308 -15.9129 -38.1532
rradius 27.1856
rwrist 36.1346
rhand 7.77641 -53.4183
rfingers 7.12502
rthumb 33.0144 -440.415
lclavicle 3.54085e-015 5.22804e-014
lhumerus -46.072 -58.2904 120.695
lradius 66.4599
lwrist 7.73337
lhand -3.93654 -49.9255
lfingers 7.12502
lthumb 21.8149 -21.135
rfemur -27.5268 14.3641 20.6871
rtibia 51.1963
rfoot -27.5946 -16.691
rtoes -35.5242
lfemur -31.8634 4.07556 -28.3236
ltibia 60.9812
lfoot -36.6901 7.30931
ltoes 14.9209
243
root 9.86318 13.8761 3.86763 -194.498 -60.5299 -157.928
lowerback 16.0643 -3.948 6.67188
upperback -3.44629 -3.50545 4.89102
thorax -13.0317 -1.98188 2.66505
lowerneck -8.90776 7.37934 3.22983
upperneck -11.8579 8.6979 -3.68509
head -1.94573 3.96428 -1.5869
rclavicle -1.36292e-014 5.92378e-014
rhumerus -71.288 -17.9873 -37.7387
rradius 26.2776
rwrist 38.6459
rhand 7.8867 -53.4676
rfingers 7.12502
rthumb 33.1193 -440.443
lclavicle -1.36292e-014 5.92378e-014
lhumerus -45.1317 -54.8039 118.413
lradius 64.5927
lwrist 7.85506
lhand -3.93935 -49.1416
lfingers 7.12502
lthumb 21.8122 -20.3509
rfemur -29.5704 13.4551 21.2443
rtibia 54.5244
rfoot -29.0902 -17.176
rtoes -34.4524
lfemur -34.5512 2.62545 -27.9852
ltibia 65.2767
lfoot -36.4018 7.88667
ltoes 15.1505
244
root 9.92523 13.642 3.73694 -195.425 -61.1608 -156.436
lowerback 16.3521 -4.06991 6.89169
upperback -3.31474 -3.596 4.97245
thorax -13.0634 -2.03596 2.67476
lowerneck -9.07414 8.06663 3.57644
upperneck -13.0366 9.44381 -4.2193
head -2.2431 4.28416 -1.82835
rclavicle 3.44581e-014 2.89232e-014
rhumerus -72.4438 -19.7764 -38.0156
rradius 25.3833
rwrist 41.1489
rhand 8.34558 -53.4205
rfingers 7.12502
rthumb 33.5555 -440.302
lclavicle 3.44581e-014 2.89232e-014
lhumerus -43.5297 -51.1193 115.702
lradius 62.733
lwrist 7.37164
lhand -3.76199 -49.6555
lfingers 7.12502
lthumb 21.9825 -20.8846
rfemur -32.3175 13.2505 22.3093
rtibia 58.7218
rfoot -29.4823 -17.7839
rtoes -31.5015
lfemur -37.5718 1.39538 -27.1397
ltibia 69.9333
lfoot -36.3255 7.96643
ltoes 13.8824
245
root 9.98602 13.4194 3.62094 -196.618 -61.7269 -154.917
lowerback 16.9204 -4.16371 7.23803
upperback -3.10898 -3.59884 4.99103
thorax -13.1875 -2.05882 2.5381
lowerneck -8.84228 8.72119 4.39762
upperneck -14.57 10.0689 -5.25135
head -2.68303 4.52676 -2.34937
rclavicle 2.3118e-014 -2.91716e-014
rhumerus -73.03 -21.1158 -39.3057
rradius 24.852
rwrist 43.5206
rhand 9.49469 -53.1214
rfingers 7.12502
rthumb 34.6469 -439.759
lclavicle 2.3118e-014 -2.91716e-014
lhumerus -42.2491 -47.6653 113.263
lradius 60.967
lwrist 6.49527
lhand -3.43584 -49.4893
lfingers 7.12502
lthumb 22.2956 -20.7555
rfemur -34.584 13.6312 23.4734
rtibia 62.6398
rfoot -29.4329 -19.5855
rtoes -30.1749
lfemur -40.1356 0.246114 -26.2464
ltibia 74.1883
lfoot -36.1722 8.37177
ltoes 10.5176
246
root 10.0342 13.2904 3.52857 -197.723 -62.2321 -153.784
lowerback 17.7807 -4.21871 7.35909
upperback -2.85546 -3.56591 4.99003
thorax -13.4108 -2.04634 2.51438
lowerneck -8.62148 9.19087 4.90685
upperneck -16.0401 10.4908 -5.90704
head -3.14896 4.67282 -2.71263
rclavicle -2.92741e-015 1.87727e-014
rhumerus -73.0657 -22.0165 -41.3882
rradius 24.8018
rwrist 45.9523
rhand 11.1651 -52.743
rfingers 7.12502
rthumb 36.2306 -439.003
lclavicle -2.92741e-015 1.87727e-014
lhumerus -41.0288 -44.165 110.928
lradius 59.0315
lwrist 5.0363
lhand -3.73566 -49.2716
lfingers 7.12502
lthumb 22.0078 -20.5037
rfemur -35.9157 12.7102 24.554
rtibia 65.6426
rfoot -30.9071 -19.3688
rtoes -27.4004
lfemur -41.7691 -0.780134 -25.4422
ltibia 77.4212
lfoot -36.0626 8.44889
ltoes 8.37338
247
root 10.0688 13.2117 3.43813 -198.338 -62.404 -153.31
lowerback 18.5549 -4.14684 7.12382
upperback -2.52822 -3.46079 4.97092
thorax -13.4666 -1.97394 2.62884
lowerneck -8.5682 9.48338 5.04281
upperneck -17.1924 10.7494 -6.08206
head -3.53755 4.74866 -2.84378
rclavicle -5.33613e-015 2.06239e-014
rhumerus -72.2649 -22.481 -44.1426
rradius 24.7166
rwrist 48.4302
rhand 12.7317 -52.1139
rfingers 7.12502
rthumb 37.7124 -437.991
lclavicle -5.33613e-015 2.06239e-014
lhumerus -39.8178 -40.6653 108.578
lradius 56.922
lwrist 3.41822
lhand -4.53507 -49.2203
lfingers 7.12502
lthumb 21.2401 -20.3641
rfemur -36.5346 12.2334 25.4175
rtibia 67.6861
rfoot -32.5276 -19.009
rtoes -24.5808
lfemur -42.6987 -1.24743 -24.8303
ltibia 79.6638
lfoot -35.8224 8.93161
ltoes 3.96593
